<svg xmlns="http://www.w3.org/2000/svg" xmlns:xlink="http://www.w3.org/1999/xlink" version="1.1" width="200" height="200" style="enable-background:new 0 0 64 64;" xml:space="preserve"><rect id="backgroundrect" width="100%" height="100%" x="0" y="0" fill="none" stroke="none" class=""/>
















<g class="currentLayer"><title>Layer 1</title><g id="svg_1" class="selected" fill="#ffffff" fill-opacity="1">
	<g id="svg_2" fill="#ffffff" fill-opacity="1">
		<g id="mail" fill="#ffffff" fill-opacity="1">
			<g id="svg_5" fill="#ffffff" fill-opacity="1">
				<path d="M143.6418889104026,65.5892361274446 H56.20769566059232 c-3.447405333849663,0 -6.245299517843592,2.7984740747709695 -6.245299517843592,6.246593916899485 v56.219345252095366 c0,3.448119842128516 2.7978941839939293,6.246593916899485 6.245299517843592,6.246593916899485 h87.43419324981028 c3.447405333849663,0 6.245299517843592,-2.7984740747709695 6.245299517843592,-6.246593916899485 V71.83583004434408 C149.8871884282462,68.38771020221556 147.08929424425224,65.5892361274446 143.6418889104026,65.5892361274446 zM138.03673259313797,71.83583004434408 L99.92479228549746,109.31539354574099 L62.11262635471344,71.83583004434408 H138.03673259313797 zM56.20769566059232,128.05517529643944 V74.97786678454452 l29.9430885383011,29.94929453457458 L62.64347681373014,128.05517529643944 H56.20769566059232 zM71.77410470881748,128.05517529643944 l18.98883318400344,-18.511781072731623 l4.933786619096438,4.931685897392144 c2.4387894617179224,2.439294924549249 6.3920640565129165,2.439294924549249 8.83397616798976,0 l4.78077678090927,-4.781767643386556 L128.30031064481983,128.05517529643944 H71.77410470881748 zM143.6418889104026,128.05517529643944 h-6.054817882549362 l-23.504184735404355,-23.128013977320343 L143.6418889104026,75.35890901347538 V128.05517529643944 z" id="svg_6" fill="#ffffff" fill-opacity="1"/>
			</g>
		</g>
	</g>
</g><g id="svg_7">
</g><g id="svg_8">
</g><g id="svg_9">
</g><g id="svg_10">
</g><g id="svg_11">
</g><g id="svg_12">
</g><g id="svg_13">
</g><g id="svg_14">
</g><g id="svg_15">
</g><g id="svg_16">
</g><g id="svg_17">
</g><g id="svg_18">
</g><g id="svg_19">
</g><g id="svg_20">
</g><g id="svg_21">
</g></g></svg>